<mxfile host="app.diagrams.net" modified="2024-07-02T19:31:27.061Z" agent="Mozilla/5.0 (Macintosh; Intel Mac OS X 10_15_7) AppleWebKit/537.36 (KHTML, like Gecko) Chrome/126.0.0.0 Safari/537.36" etag="C9JX0jC9aEHpEIhjv3-E" version="24.6.4" type="github">
  <diagram name="Страница — 1" id="W9IkOPkcE-70tv02vc99">
    <mxGraphModel dx="1781" dy="606" grid="1" gridSize="10" guides="1" tooltips="1" connect="1" arrows="1" fold="1" page="1" pageScale="1" pageWidth="827" pageHeight="1169" math="0" shadow="0">
      <root>
        <mxCell id="0" />
        <mxCell id="1" parent="0" />
        <mxCell id="TIuWhn0yAi8Gs-Zh3u9J-19" style="edgeStyle=orthogonalEdgeStyle;shape=connector;rounded=0;orthogonalLoop=1;jettySize=auto;html=1;dashed=1;strokeColor=default;align=center;verticalAlign=middle;fontFamily=Helvetica;fontSize=11;fontColor=default;labelBackgroundColor=default;endArrow=ERoneToMany;endFill=0;" edge="1" parent="1" source="TIuWhn0yAi8Gs-Zh3u9J-1" target="TIuWhn0yAi8Gs-Zh3u9J-13">
          <mxGeometry relative="1" as="geometry" />
        </mxCell>
        <mxCell id="TIuWhn0yAi8Gs-Zh3u9J-43" style="edgeStyle=orthogonalEdgeStyle;shape=connector;rounded=0;orthogonalLoop=1;jettySize=auto;html=1;dashed=1;strokeColor=default;align=center;verticalAlign=middle;fontFamily=Helvetica;fontSize=11;fontColor=default;labelBackgroundColor=default;endArrow=ERoneToMany;endFill=0;" edge="1" parent="1" source="TIuWhn0yAi8Gs-Zh3u9J-1" target="TIuWhn0yAi8Gs-Zh3u9J-39">
          <mxGeometry relative="1" as="geometry" />
        </mxCell>
        <mxCell id="TIuWhn0yAi8Gs-Zh3u9J-1" value="Товар" style="swimlane;fontStyle=0;childLayout=stackLayout;horizontal=1;startSize=26;horizontalStack=0;resizeParent=1;resizeParentMax=0;resizeLast=0;collapsible=1;marginBottom=0;align=center;fontSize=14;" vertex="1" parent="1">
          <mxGeometry x="110" y="195" width="160" height="146" as="geometry" />
        </mxCell>
        <mxCell id="TIuWhn0yAi8Gs-Zh3u9J-5" value="Наименование" style="text;strokeColor=none;fillColor=none;spacingLeft=4;spacingRight=4;overflow=hidden;rotatable=0;points=[[0,0.5],[1,0.5]];portConstraint=eastwest;fontSize=12;whiteSpace=wrap;html=1;" vertex="1" parent="TIuWhn0yAi8Gs-Zh3u9J-1">
          <mxGeometry y="26" width="160" height="30" as="geometry" />
        </mxCell>
        <mxCell id="TIuWhn0yAi8Gs-Zh3u9J-6" value="Описание" style="text;strokeColor=none;fillColor=none;spacingLeft=4;spacingRight=4;overflow=hidden;rotatable=0;points=[[0,0.5],[1,0.5]];portConstraint=eastwest;fontSize=12;whiteSpace=wrap;html=1;" vertex="1" parent="TIuWhn0yAi8Gs-Zh3u9J-1">
          <mxGeometry y="56" width="160" height="30" as="geometry" />
        </mxCell>
        <mxCell id="TIuWhn0yAi8Gs-Zh3u9J-7" value="Цена" style="text;strokeColor=none;fillColor=none;spacingLeft=4;spacingRight=4;overflow=hidden;rotatable=0;points=[[0,0.5],[1,0.5]];portConstraint=eastwest;fontSize=12;whiteSpace=wrap;html=1;" vertex="1" parent="TIuWhn0yAi8Gs-Zh3u9J-1">
          <mxGeometry y="86" width="160" height="30" as="geometry" />
        </mxCell>
        <mxCell id="TIuWhn0yAi8Gs-Zh3u9J-20" value="Удалён" style="text;strokeColor=none;fillColor=none;spacingLeft=4;spacingRight=4;overflow=hidden;rotatable=0;points=[[0,0.5],[1,0.5]];portConstraint=eastwest;fontSize=11;whiteSpace=wrap;html=1;fontFamily=Helvetica;fontColor=default;labelBackgroundColor=default;" vertex="1" parent="TIuWhn0yAi8Gs-Zh3u9J-1">
          <mxGeometry y="116" width="160" height="30" as="geometry" />
        </mxCell>
        <mxCell id="TIuWhn0yAi8Gs-Zh3u9J-18" style="edgeStyle=orthogonalEdgeStyle;rounded=0;orthogonalLoop=1;jettySize=auto;html=1;endArrow=ERoneToMany;endFill=0;dashed=1;" edge="1" parent="1" source="TIuWhn0yAi8Gs-Zh3u9J-8" target="TIuWhn0yAi8Gs-Zh3u9J-13">
          <mxGeometry relative="1" as="geometry" />
        </mxCell>
        <mxCell id="TIuWhn0yAi8Gs-Zh3u9J-8" value="Файлы" style="swimlane;fontStyle=0;childLayout=stackLayout;horizontal=1;startSize=26;horizontalStack=0;resizeParent=1;resizeParentMax=0;resizeLast=0;collapsible=1;marginBottom=0;align=center;fontSize=14;" vertex="1" parent="1">
          <mxGeometry x="-90" y="90" width="160" height="86" as="geometry" />
        </mxCell>
        <mxCell id="TIuWhn0yAi8Gs-Zh3u9J-12" value="Путь к файлу" style="text;strokeColor=none;fillColor=none;spacingLeft=4;spacingRight=4;overflow=hidden;rotatable=0;points=[[0,0.5],[1,0.5]];portConstraint=eastwest;fontSize=12;whiteSpace=wrap;html=1;" vertex="1" parent="TIuWhn0yAi8Gs-Zh3u9J-8">
          <mxGeometry y="26" width="160" height="30" as="geometry" />
        </mxCell>
        <mxCell id="TIuWhn0yAi8Gs-Zh3u9J-17" value="Расширение" style="text;strokeColor=none;fillColor=none;spacingLeft=4;spacingRight=4;overflow=hidden;rotatable=0;points=[[0,0.5],[1,0.5]];portConstraint=eastwest;fontSize=12;whiteSpace=wrap;html=1;" vertex="1" parent="TIuWhn0yAi8Gs-Zh3u9J-8">
          <mxGeometry y="56" width="160" height="30" as="geometry" />
        </mxCell>
        <mxCell id="TIuWhn0yAi8Gs-Zh3u9J-13" value="Файлы товаров" style="swimlane;fontStyle=0;childLayout=stackLayout;horizontal=1;startSize=26;horizontalStack=0;resizeParent=1;resizeParentMax=0;resizeLast=0;collapsible=1;marginBottom=0;align=center;fontSize=14;" vertex="1" parent="1">
          <mxGeometry x="-90" y="240" width="160" height="56" as="geometry" />
        </mxCell>
        <mxCell id="TIuWhn0yAi8Gs-Zh3u9J-25" style="edgeStyle=orthogonalEdgeStyle;shape=connector;rounded=0;orthogonalLoop=1;jettySize=auto;html=1;entryX=0.5;entryY=0;entryDx=0;entryDy=0;dashed=1;strokeColor=default;align=center;verticalAlign=middle;fontFamily=Helvetica;fontSize=11;fontColor=default;labelBackgroundColor=default;endArrow=ERoneToMany;endFill=0;" edge="1" parent="1" source="TIuWhn0yAi8Gs-Zh3u9J-21" target="TIuWhn0yAi8Gs-Zh3u9J-1">
          <mxGeometry relative="1" as="geometry" />
        </mxCell>
        <mxCell id="TIuWhn0yAi8Gs-Zh3u9J-21" value="Производитель" style="swimlane;fontStyle=0;childLayout=stackLayout;horizontal=1;startSize=26;horizontalStack=0;resizeParent=1;resizeParentMax=0;resizeLast=0;collapsible=1;marginBottom=0;align=center;fontSize=14;fontFamily=Helvetica;fontColor=default;labelBackgroundColor=default;" vertex="1" parent="1">
          <mxGeometry x="110" y="90" width="160" height="56" as="geometry" />
        </mxCell>
        <mxCell id="TIuWhn0yAi8Gs-Zh3u9J-26" value="Наименование" style="text;strokeColor=none;fillColor=none;spacingLeft=4;spacingRight=4;overflow=hidden;rotatable=0;points=[[0,0.5],[1,0.5]];portConstraint=eastwest;fontSize=11;whiteSpace=wrap;html=1;fontFamily=Helvetica;fontColor=default;labelBackgroundColor=default;" vertex="1" parent="TIuWhn0yAi8Gs-Zh3u9J-21">
          <mxGeometry y="26" width="160" height="30" as="geometry" />
        </mxCell>
        <mxCell id="TIuWhn0yAi8Gs-Zh3u9J-45" style="edgeStyle=orthogonalEdgeStyle;shape=connector;rounded=0;orthogonalLoop=1;jettySize=auto;html=1;dashed=1;strokeColor=default;align=center;verticalAlign=middle;fontFamily=Helvetica;fontSize=11;fontColor=default;labelBackgroundColor=default;endArrow=ERoneToMany;endFill=0;" edge="1" parent="1" source="TIuWhn0yAi8Gs-Zh3u9J-31" target="TIuWhn0yAi8Gs-Zh3u9J-35">
          <mxGeometry relative="1" as="geometry" />
        </mxCell>
        <mxCell id="TIuWhn0yAi8Gs-Zh3u9J-31" value="Клиент" style="swimlane;fontStyle=0;childLayout=stackLayout;horizontal=1;startSize=26;horizontalStack=0;resizeParent=1;resizeParentMax=0;resizeLast=0;collapsible=1;marginBottom=0;align=center;fontSize=14;fontFamily=Helvetica;fontColor=default;labelBackgroundColor=default;" vertex="1" parent="1">
          <mxGeometry x="530" y="105" width="160" height="56" as="geometry" />
        </mxCell>
        <mxCell id="TIuWhn0yAi8Gs-Zh3u9J-44" style="edgeStyle=orthogonalEdgeStyle;shape=connector;rounded=0;orthogonalLoop=1;jettySize=auto;html=1;dashed=1;strokeColor=default;align=center;verticalAlign=middle;fontFamily=Helvetica;fontSize=11;fontColor=default;labelBackgroundColor=default;endArrow=ERoneToMany;endFill=0;" edge="1" parent="1" source="TIuWhn0yAi8Gs-Zh3u9J-35" target="TIuWhn0yAi8Gs-Zh3u9J-39">
          <mxGeometry relative="1" as="geometry" />
        </mxCell>
        <mxCell id="TIuWhn0yAi8Gs-Zh3u9J-35" value="Заказ" style="swimlane;fontStyle=0;childLayout=stackLayout;horizontal=1;startSize=26;horizontalStack=0;resizeParent=1;resizeParentMax=0;resizeLast=0;collapsible=1;marginBottom=0;align=center;fontSize=14;fontFamily=Helvetica;fontColor=default;labelBackgroundColor=default;" vertex="1" parent="1">
          <mxGeometry x="530" y="240" width="160" height="56" as="geometry" />
        </mxCell>
        <mxCell id="TIuWhn0yAi8Gs-Zh3u9J-39" value="Товар в заказе" style="swimlane;fontStyle=0;childLayout=stackLayout;horizontal=1;startSize=26;horizontalStack=0;resizeParent=1;resizeParentMax=0;resizeLast=0;collapsible=1;marginBottom=0;align=center;fontSize=14;fontFamily=Helvetica;fontColor=default;labelBackgroundColor=default;" vertex="1" parent="1">
          <mxGeometry x="320" y="240" width="160" height="56" as="geometry" />
        </mxCell>
      </root>
    </mxGraphModel>
  </diagram>
</mxfile>
